<svg width="27" height="27" viewBox="0 0 27 27" fill="none" xmlns="http://www.w3.org/2000/svg">
<path d="M12.5795 3.375V0H14.4205V3.375H12.5795ZM12.5795 27V23.625H14.4205V27H12.5795ZM23.625 14.4205V12.5795H27V14.4205H23.625ZM0 14.4205V12.5795H3.375V14.4205H0ZM21.5386 6.75L20.2193 5.43068L22.2443 3.40568L23.5636 4.725L21.5386 6.75ZM4.75568 23.5943L3.43636 22.275L5.46136 20.25L6.78068 21.5693L4.75568 23.5943ZM22.2443 23.5943L20.2193 21.5693L21.5386 20.25L23.5636 22.275L22.2443 23.5943ZM5.46136 6.75L3.43636 4.725L4.75568 3.40568L6.78068 5.43068L5.46136 6.75ZM13.5 20.4034C11.5773 20.4034 9.94602 19.7335 8.60625 18.3938C7.26648 17.054 6.59659 15.4227 6.59659 13.5C6.59659 11.5773 7.26648 9.94602 8.60625 8.60625C9.94602 7.26648 11.5773 6.59659 13.5 6.59659C15.4227 6.59659 17.054 7.26648 18.3938 8.60625C19.7335 9.94602 20.4034 11.5773 20.4034 13.5C20.4034 15.4227 19.7335 17.054 18.3938 18.3938C17.054 19.7335 15.4227 20.4034 13.5 20.4034ZM13.5 18.5625C14.9114 18.5625 16.108 18.0716 17.0898 17.0898C18.0716 16.108 18.5625 14.9114 18.5625 13.5C18.5625 12.0886 18.0716 10.892 17.0898 9.91023C16.108 8.92841 14.9114 8.4375 13.5 8.4375C12.0886 8.4375 10.892 8.92841 9.91023 9.91023C8.92841 10.892 8.4375 12.0886 8.4375 13.5C8.4375 14.9114 8.92841 16.108 9.91023 17.0898C10.892 18.0716 12.0886 18.5625 13.5 18.5625Z" fill="#FFEAE0"/>
</svg>
