<svg width="30" height="30" viewBox="0 0 30 30" fill="none" xmlns="http://www.w3.org/2000/svg">
<circle cx="15" cy="15" r="15" fill="#791625"/>
<path d="M10.5743 22.027C10.277 22.027 10.0169 21.9155 9.79393 21.6925C9.57096 21.4695 9.45947 21.2094 9.45947 20.9121V11.2499C9.45947 10.9527 9.57096 10.6925 9.79393 10.4695C10.0169 10.2466 10.277 10.1351 10.5743 10.1351H12.6183V9.94927C12.6183 9.16887 12.8877 8.50924 13.4265 7.97039C13.9654 7.43154 14.625 7.16211 15.4054 7.16211C16.1858 7.16211 16.8455 7.43154 17.3843 7.97039C17.9232 8.50924 18.1926 9.16887 18.1926 9.94927V10.1351H20.2365C20.5338 10.1351 20.7939 10.2466 21.0169 10.4695C21.2399 10.6925 21.3514 10.9527 21.3514 11.2499V20.9121C21.3514 21.2094 21.2399 21.4695 21.0169 21.6925C20.7939 21.9155 20.5338 22.027 20.2365 22.027H10.5743ZM10.5743 20.9121H20.2365V11.2499H18.1926V12.9222C18.1926 13.0833 18.1399 13.2164 18.0346 13.3217C17.9293 13.427 17.7962 13.4797 17.6351 13.4797C17.4741 13.4797 17.3409 13.427 17.2357 13.3217C17.1304 13.2164 17.0777 13.0833 17.0777 12.9222V11.2499H13.7331V12.9222C13.7331 13.0833 13.6805 13.2164 13.5752 13.3217C13.4699 13.427 13.3367 13.4797 13.1757 13.4797C13.0147 13.4797 12.8815 13.427 12.7762 13.3217C12.6709 13.2164 12.6183 13.0833 12.6183 12.9222V11.2499H10.5743V20.9121ZM13.7331 10.1351H17.0777V9.94927C17.0777 9.47855 16.9167 9.08215 16.5946 8.76008C16.2725 8.43801 15.8761 8.27697 15.4054 8.27697C14.9347 8.27697 14.5383 8.43801 14.2162 8.76008C13.8942 9.08215 13.7331 9.47855 13.7331 9.94927V10.1351ZM10.5743 20.9121V11.2499V20.9121Z" fill="#FEDFD2"/>
</svg>
