<svg width="25" height="21" viewBox="0 0 25 21" fill="none" xmlns="http://www.w3.org/2000/svg">
<path d="M25 2.40472C24.0798 2.81335 23.0914 3.08834 22.054 3.21238C23.1135 2.57779 23.926 1.57302 24.3087 0.374986C23.3183 0.962463 22.2203 1.38937 21.0511 1.62013C20.1156 0.623053 18.7829 0 17.308 0C14.4754 0 12.1793 2.29703 12.1793 5.12865C12.1793 5.53056 12.2255 5.92285 12.312 6.29687C8.04969 6.08342 4.27099 4.04119 1.74032 0.937464C1.29995 1.69513 1.04708 2.57586 1.04708 3.51717C1.04708 5.29595 1.95185 6.86608 3.32776 7.78528C2.4874 7.75836 1.69609 7.5276 1.00477 7.14396C1.00477 7.16607 1.00477 7.18626 1.00477 7.20838C1.00477 9.69386 2.77201 11.7669 5.11903 12.237C4.68924 12.3543 4.23541 12.4168 3.76716 12.4168C3.43737 12.4168 3.11526 12.3841 2.80278 12.3255C3.45564 14.3629 5.34979 15.8465 7.59394 15.8878C5.8392 17.2638 3.62775 18.0839 1.22399 18.0839C0.810546 18.0839 0.401908 18.0599 0 18.0118C2.27011 19.4666 4.96519 20.3156 7.8622 20.3156C17.2965 20.3156 22.4539 12.5005 22.4539 5.72286C22.4539 5.50075 22.4491 5.27961 22.4395 5.05942C23.4424 4.33541 24.3125 3.43256 25 2.40472Z" fill="#E4572E"/>
</svg>
