<svg width="27" height="27" viewBox="0 0 27 27" fill="none" xmlns="http://www.w3.org/2000/svg">
<path d="M13.98 24.375C12.51 24.375 11.1319 24.095 9.84562 23.535C8.55938 22.975 7.43937 22.2181 6.48563 21.2644C5.53187 20.3106 4.775 19.1906 4.215 17.9044C3.655 16.6181 3.375 15.24 3.375 13.77C3.375 11.215 4.18875 8.96187 5.81625 7.01062C7.44375 5.05938 9.5175 3.8475 12.0375 3.375C11.7225 5.09 11.8187 6.77437 12.3262 8.42812C12.8337 10.0819 13.7087 11.53 14.9512 12.7725C16.1937 14.015 17.6419 14.8944 19.2956 15.4106C20.9494 15.9269 22.6425 16.0275 24.375 15.7125C23.92 18.2325 22.7125 20.3062 20.7525 21.9337C18.7925 23.5612 16.535 24.375 13.98 24.375ZM13.98 22.8C15.73 22.8 17.3225 22.3013 18.7575 21.3037C20.1925 20.3062 21.3475 19.0375 22.2225 17.4975C20.6475 17.3575 19.1337 16.9944 17.6812 16.4081C16.2287 15.8219 14.9513 14.9775 13.8488 13.875C12.7288 12.7725 11.88 11.4994 11.3025 10.0556C10.725 8.61188 10.3662 7.11125 10.2262 5.55375C8.68625 6.39375 7.42187 7.53562 6.43312 8.97937C5.44437 10.4231 4.95 12.02 4.95 13.77C4.95 16.2725 5.82937 18.4031 7.58812 20.1619C9.34687 21.9206 11.4775 22.8 13.98 22.8Z" fill="#2C2420"/>
</svg>
