<svg width="22" height="23" viewBox="0 0 22 23" fill="none" xmlns="http://www.w3.org/2000/svg">
<path d="M5.04167 21.1528C4.67501 21.1528 4.35417 21.0153 4.07917 20.7403C3.80417 20.4653 3.66667 20.1445 3.66667 19.7778V7.86112C3.66667 7.49446 3.80417 7.17362 4.07917 6.89862C4.35417 6.62362 4.67501 6.48612 5.04167 6.48612H7.56251V6.25696C7.56251 5.29446 7.8948 4.48092 8.55938 3.81633C9.22396 3.15175 10.0375 2.81946 11 2.81946C11.9625 2.81946 12.776 3.15175 13.4406 3.81633C14.1052 4.48092 14.4375 5.29446 14.4375 6.25696V6.48612H16.9583C17.325 6.48612 17.6458 6.62362 17.9208 6.89862C18.1958 7.17362 18.3333 7.49446 18.3333 7.86112V19.7778C18.3333 20.1445 18.1958 20.4653 17.9208 20.7403C17.6458 21.0153 17.325 21.1528 16.9583 21.1528H5.04167ZM5.04167 19.7778H16.9583V7.86112H14.4375V9.92362C14.4375 10.1222 14.3726 10.2865 14.2427 10.4163C14.1129 10.5462 13.9486 10.6111 13.75 10.6111C13.5514 10.6111 13.3872 10.5462 13.2573 10.4163C13.1274 10.2865 13.0625 10.1222 13.0625 9.92362V7.86112H8.93751V9.92362C8.93751 10.1222 8.87257 10.2865 8.74271 10.4163C8.61285 10.5462 8.44862 10.6111 8.25001 10.6111C8.05139 10.6111 7.88716 10.5462 7.7573 10.4163C7.62744 10.2865 7.56251 10.1222 7.56251 9.92362V7.86112H5.04167V19.7778ZM8.93751 6.48612H13.0625V6.25696C13.0625 5.6764 12.8639 5.18751 12.4667 4.79029C12.0695 4.39307 11.5806 4.19446 11 4.19446C10.4194 4.19446 9.93056 4.39307 9.53334 4.79029C9.13612 5.18751 8.93751 5.6764 8.93751 6.25696V6.48612ZM5.04167 19.7778V7.86112V19.7778Z" fill="#FEDFD2"/>
</svg>
