<svg width="30" height="30" viewBox="0 0 30 30" fill="none" xmlns="http://www.w3.org/2000/svg">
<path d="M10.4038 0H3.17308C1.42308 0 0 1.42308 0 3.17308V10.3942C0 12.1442 1.42308 13.5673 3.17308 13.5673H10.3942C12.1442 13.5673 13.5673 12.1442 13.5673 10.3942V3.16346C13.5769 1.42308 12.1538 0 10.4038 0ZM10.9808 10.3942C10.9808 10.7115 10.7212 10.9712 10.4038 10.9712H3.17308C2.85577 10.9712 2.59615 10.7115 2.59615 10.3942V3.16346C2.59615 2.84615 2.85577 2.58654 3.17308 2.58654H10.3942C10.7115 2.58654 10.9712 2.84615 10.9712 3.16346V10.3942H10.9808Z" fill="#2C2420"/>
<path d="M10.4038 16.4231H3.17308C1.42308 16.4231 0 17.8462 0 19.5962V26.8173C0 28.5673 1.42308 29.9904 3.17308 29.9904H10.3942C12.1442 29.9904 13.5673 28.5673 13.5673 26.8173V19.5962C13.5769 17.8462 12.1538 16.4231 10.4038 16.4231ZM10.9808 26.8173C10.9808 27.1346 10.7212 27.3943 10.4038 27.3943H3.17308C2.85577 27.3943 2.59615 27.1346 2.59615 26.8173V19.5962C2.59615 19.2789 2.85577 19.0192 3.17308 19.0192H10.3942C10.7115 19.0192 10.9712 19.2789 10.9712 19.5962V26.8173H10.9808Z" fill="#2C2420"/>
<path d="M26.8268 16.4231H19.6057C17.8557 16.4231 16.4326 17.8462 16.4326 19.5962V26.8173C16.4326 28.5673 17.8557 29.9904 19.6057 29.9904H26.8268C28.5768 29.9904 29.9999 28.5673 29.9999 26.8173V19.5962C29.9903 17.8462 28.5768 16.4231 26.8268 16.4231ZM27.3942 26.8173C27.3942 27.1346 27.1345 27.3943 26.8172 27.3943H19.5961C19.2788 27.3943 19.0192 27.1346 19.0192 26.8173V19.5962C19.0192 19.2789 19.2788 19.0192 19.5961 19.0192H26.8172C27.1345 19.0192 27.3942 19.2789 27.3942 19.5962V26.8173Z" fill="#2C2420"/>
<path d="M26.8268 0H19.6057C17.8557 0 16.4326 1.42308 16.4326 3.17308V10.3942C16.4326 12.1442 17.8557 13.5673 19.6057 13.5673H26.8268C28.5768 13.5673 29.9999 12.1442 29.9999 10.3942V3.16346C29.9903 1.42308 28.5768 0 26.8268 0ZM27.3942 10.3942C27.3942 10.7115 27.1345 10.9712 26.8172 10.9712H19.5961C19.2788 10.9712 19.0192 10.7115 19.0192 10.3942V3.16346C19.0192 2.84615 19.2788 2.58654 19.5961 2.58654H26.8172C27.1345 2.58654 27.3942 2.84615 27.3942 3.16346V10.3942Z" fill="#2C2420"/>
</svg>
